<svg width="13" height="13" viewBox="0 0 13 13" fill="none" xmlns="http://www.w3.org/2000/svg">
<path d="M3.94967 12.2033C2.84533 12.2033 1.911 11.8211 1.14667 11.0567C0.382222 10.2923 0 9.358 0 8.25367V3.95367C0 2.84933 0.382222 1.91433 1.14667 1.14867C1.911 0.382889 2.84533 0 3.94967 0H8.24967C9.354 0 10.289 0.382889 11.0547 1.14867C11.8204 1.91433 12.2033 2.84933 12.2033 3.95367V8.25367C12.2033 9.358 11.8204 10.2923 11.0547 11.0567C10.289 11.8211 9.354 12.2033 8.24967 12.2033H3.94967ZM5.40833 7.22183L4.15767 5.967C4.05233 5.86444 3.92756 5.81528 3.78333 5.8195C3.63911 5.82372 3.51439 5.87844 3.40917 5.98367C3.30383 6.09167 3.25117 6.21711 3.25117 6.36C3.25117 6.50289 3.30383 6.62833 3.40917 6.73633L5.0065 8.317C5.11983 8.433 5.25311 8.491 5.40633 8.491C5.55967 8.491 5.69428 8.433 5.81017 8.317L9.07433 5.053C9.17967 4.94767 9.233 4.82289 9.23433 4.67867C9.23567 4.53444 9.18233 4.40833 9.07433 4.30033C8.969 4.19511 8.84422 4.1425 8.7 4.1425C8.55578 4.1425 8.43106 4.19511 8.32583 4.30033L5.40833 7.22183ZM3.94967 11.0678H8.24967C9.03055 11.0678 9.69483 10.7941 10.2425 10.2465C10.7901 9.69883 11.0638 9.03455 11.0638 8.25367V3.95367C11.0638 3.17278 10.7901 2.5085 10.2425 1.96083C9.69483 1.41328 9.03055 1.1395 8.24967 1.1395H3.94967C3.16878 1.1395 2.5045 1.41328 1.95683 1.96083C1.40928 2.5085 1.1355 3.17278 1.1355 3.95367V8.25367C1.1355 9.03455 1.40928 9.69883 1.95683 10.2465C2.5045 10.7941 3.16878 11.0678 3.94967 11.0678Z" fill="#0B0B0C"/>
</svg>
