<svg width="13" height="13" viewBox="0 0 13 13" fill="none" xmlns="http://www.w3.org/2000/svg">
<path d="M1.20397 12.1675C0.694632 12.1675 0.333465 11.9322 0.120465 11.4617C-0.0924237 10.9911 -0.0231459 10.5608 0.328299 10.1707L4.43763 5.532V1.13567H3.66263C3.50241 1.13567 3.36774 1.08078 3.25863 0.971C3.14952 0.861333 3.09497 0.725945 3.09497 0.564834C3.09497 0.403834 3.14952 0.269445 3.25863 0.161667C3.36774 0.0538891 3.50241 0 3.66263 0H9.01197C9.17219 0 9.30752 0.054889 9.41797 0.164667C9.52841 0.274333 9.58363 0.409722 9.58363 0.570833C9.58363 0.731833 9.52841 0.866222 9.41797 0.974C9.30752 1.08178 9.17219 1.13567 9.01197 1.13567H8.24096V5.532L12.3503 10.1707C12.6991 10.5608 12.767 10.9911 12.5541 11.4617C12.3411 11.9322 11.98 12.1675 11.4706 12.1675H1.20397ZM2.4503 10.532H10.2283L7.6213 7.52033H5.0573L2.4503 10.532ZM1.08363 11.032H11.595L7.10147 5.9505V1.13567H5.57313V5.9505L1.08363 11.032Z" fill="#0B0B0C"/>
</svg>
