<svg width="12" height="11" viewBox="0 0 12 11" fill="none" xmlns="http://www.w3.org/2000/svg">
<path d="M3.64104 8.18817L3.06171 10.4555C3.03416 10.5798 2.97204 10.6807 2.87538 10.758C2.77882 10.8353 2.66832 10.874 2.54388 10.874C2.36443 10.874 2.21804 10.8042 2.10471 10.6647C1.99149 10.5252 1.95977 10.3658 2.00954 10.1863L2.51421 8.18817H0.569211C0.389767 8.18817 0.241323 8.11628 0.123878 7.9725C0.00632279 7.82883 -0.0275662 7.66722 0.0222116 7.48767C0.0497671 7.36333 0.113267 7.25972 0.212711 7.17683C0.312267 7.09394 0.4311 7.0525 0.569211 7.0525H2.80004L3.61421 3.8215H1.66921C1.48977 3.8215 1.34132 3.74961 1.22388 3.60583C1.10632 3.46217 1.07243 3.30055 1.12221 3.121C1.14977 2.99667 1.21327 2.89306 1.31271 2.81017C1.41227 2.72728 1.5311 2.68583 1.66921 2.68583H3.90004L4.45871 0.4185C4.48627 0.294166 4.54838 0.193333 4.64504 0.115999C4.7416 0.038666 4.8521 0 4.97654 0C5.15599 0 5.2996 0.0676666 5.40738 0.203C5.51504 0.338222 5.54954 0.494221 5.51088 0.670999L5.02288 2.68583H8.26671L8.82538 0.4185C8.85293 0.294166 8.91504 0.193333 9.01171 0.115999C9.10827 0.038666 9.21877 0 9.34321 0C9.52265 0 9.66627 0.0676666 9.77404 0.203C9.88171 0.338222 9.91621 0.494221 9.87754 0.670999L9.38954 2.68583H11.3345C11.514 2.68583 11.6624 2.75772 11.7799 2.9015C11.8974 3.04517 11.9313 3.20678 11.8815 3.38633C11.854 3.51067 11.7905 3.61428 11.691 3.69717C11.5915 3.78006 11.4727 3.8215 11.3345 3.8215H9.10771L8.28955 7.0525H10.2345C10.414 7.0525 10.5624 7.12439 10.6799 7.26817C10.7974 7.41183 10.8313 7.57344 10.7815 7.753C10.754 7.87733 10.6905 7.98094 10.591 8.06383C10.4915 8.14672 10.3727 8.18817 10.2345 8.18817H8.00771L7.42838 10.4555C7.40082 10.5798 7.33871 10.6807 7.24204 10.758C7.14549 10.8353 7.03499 10.874 6.91054 10.874C6.7311 10.874 6.58471 10.8042 6.47138 10.6647C6.35816 10.5252 6.32643 10.3658 6.37621 10.1863L6.88088 8.18817H3.64104ZM3.92288 7.0525H7.16671L7.98088 3.8215H4.74104L3.92288 7.0525Z" fill="#0B0B0C"/>
</svg>
