<svg width="12" height="12" viewBox="0 0 12 12" fill="none" xmlns="http://www.w3.org/2000/svg">
<path d="M4.34277 0.5C5.41254 0.5 6.30635 0.870656 7.05273 1.62207C7.80037 2.37464 8.16893 3.27042 8.16895 4.33691C8.16895 4.76488 8.10169 5.17127 7.96875 5.55762C7.83631 5.94235 7.63665 6.30677 7.36621 6.65137L7.0918 7.00098L7.40723 7.31445L11.417 11.291L11.4189 11.293C11.4297 11.3035 11.4325 11.31 11.4336 11.3125C11.4346 11.3149 11.4385 11.3252 11.4385 11.3486C11.4385 11.3717 11.4352 11.3827 11.4336 11.3867C11.4321 11.3904 11.4279 11.3982 11.415 11.4111L11.4131 11.4131C11.399 11.4273 11.3906 11.432 11.3867 11.4336C11.3828 11.4352 11.3722 11.4385 11.3496 11.4385C11.3378 11.4385 11.3296 11.4374 11.3252 11.4365C11.3213 11.4357 11.3189 11.4358 11.3184 11.4355C11.3178 11.4353 11.3168 11.4346 11.3154 11.4336C11.3137 11.4324 11.31 11.4295 11.3047 11.4238L11.2988 11.417L11.293 11.4111L7.30078 7.42285L6.97461 7.09668L6.62402 7.39453C6.4133 7.57339 6.17299 7.72552 5.90137 7.84863L5.62012 7.96191C5.23505 8.09877 4.81865 8.16891 4.36816 8.16895C3.27749 8.16895 2.37199 7.79659 1.62207 7.0459C0.870124 6.29306 0.500107 5.39855 0.5 4.33496C0.5 3.27136 0.871034 2.37701 1.62402 1.62402V1.62305C2.37628 0.870904 3.27305 0.500014 4.34277 0.5ZM4.35254 0.635742C3.32739 0.635742 2.43994 0.999899 1.71973 1.71973C1.00104 2.43823 0.635742 3.31943 0.635742 4.33496C0.635853 5.35013 1.00065 6.23084 1.71875 6.94922C2.43866 7.66925 3.32674 8.0332 4.35254 8.0332C5.37079 8.03319 6.25073 7.66814 6.96289 6.94727C7.67309 6.22838 8.03309 5.34836 8.0332 4.33496C8.0332 3.32125 7.67271 2.44065 6.96191 1.72168C6.24957 1.00105 5.3701 0.635752 4.35254 0.635742Z" fill="#0B0B0C" stroke="#0B0B0C"/>
</svg>
