<svg width="23" height="23" viewBox="0 0 23 23" fill="none" xmlns="http://www.w3.org/2000/svg">
<path d="M18.3685 7.88325C17.4307 7.88325 16.6077 7.59158 15.8997 7.00825C15.1916 6.42492 14.7379 5.68758 14.5387 4.79625H7.7605C7.59783 5.53425 7.24767 6.17217 6.71 6.71C6.17217 7.24767 5.53425 7.59783 4.79625 7.7605V14.5388C5.68358 14.7379 6.41992 15.1906 7.00525 15.8968C7.59058 16.6028 7.88325 17.4299 7.88325 18.3783C7.88325 19.4813 7.49767 20.4135 6.7265 21.175C5.95517 21.9363 5.02808 22.317 3.94525 22.317C2.84225 22.317 1.909 21.9363 1.1455 21.175C0.381833 20.4135 0 19.478 0 18.3685C0 17.4298 0.292667 16.6067 0.878 15.899C1.46333 15.1913 2.20167 14.7379 3.093 14.5388V7.75925C2.20167 7.56008 1.46333 7.11067 0.878 6.411C0.292667 5.71133 0 4.87892 0 3.91375C0 2.83675 0.383083 1.91525 1.14925 1.14925C1.91525 0.383084 2.83675 0 3.91375 0C4.87892 0 5.71133 0.292667 6.411 0.878C7.11067 1.46333 7.56008 2.19967 7.75925 3.087H14.5387C14.7379 2.19967 15.1908 1.46333 15.8973 0.878C16.6038 0.292667 17.4307 0 18.3783 0C19.4809 0 20.414 0.381834 21.1775 1.1455C21.9412 1.909 22.323 2.83808 22.323 3.93275C22.323 5.02725 21.9412 5.95925 21.1775 6.72875C20.414 7.49842 19.4777 7.88325 18.3685 7.88325ZM3.90625 20.6138C4.53142 20.6138 5.06667 20.3973 5.512 19.9645C5.95733 19.5315 6.18 19.0146 6.18 18.4138C6.18 17.7923 5.95758 17.2594 5.51275 16.8153C5.06775 16.3711 4.53292 16.149 3.90825 16.149C3.30242 16.149 2.7845 16.371 2.3545 16.815C1.92433 17.2592 1.70925 17.793 1.70925 18.4165C1.70925 19.0172 1.92467 19.5335 2.3555 19.9655C2.78633 20.3977 3.30325 20.6138 3.90625 20.6138ZM3.90625 6.18C4.53142 6.18 5.06667 5.95808 5.512 5.51425C5.95733 5.07042 6.18 4.53692 6.18 3.91375C6.18 3.30375 5.95758 2.78383 5.51275 2.354C5.06775 1.92417 4.53292 1.70925 3.90825 1.70925C3.30242 1.70925 2.7845 1.9245 2.3545 2.355C1.92433 2.78533 1.70925 3.30483 1.70925 3.9135C1.70925 4.536 1.92467 5.06933 2.3555 5.5135C2.78633 5.95783 3.30325 6.18 3.90625 6.18ZM18.4123 22.329C17.3236 22.329 16.3903 21.9469 15.6125 21.1828C14.8347 20.4188 14.4458 19.4972 14.4458 18.4182C14.4458 17.3258 14.8338 16.3905 15.6098 15.6125C16.3859 14.8347 17.317 14.4458 18.403 14.4458C19.4952 14.4458 20.4225 14.8338 21.185 15.6098C21.9477 16.3859 22.329 17.319 22.329 18.409C22.329 19.4992 21.9464 20.425 21.1812 21.1865C20.4163 21.9482 19.4932 22.329 18.4123 22.329ZM18.4172 20.6198C19.0246 20.6198 19.5445 20.4043 19.977 19.9735C20.4095 19.5427 20.6258 19.0258 20.6258 18.4228C20.6258 17.7976 20.4093 17.2623 19.9762 16.817C19.5431 16.3717 19.0225 16.149 18.4145 16.149C17.7927 16.149 17.2607 16.3714 16.8185 16.8163C16.3762 17.2613 16.155 17.7961 16.155 18.4208C16.155 19.0266 16.376 19.5445 16.818 19.9745C17.2598 20.4047 17.7929 20.6198 18.4172 20.6198ZM18.409 6.18C19.0152 6.18 19.5342 5.95808 19.966 5.51425C20.3978 5.07042 20.6138 4.53692 20.6138 3.91375C20.6138 3.30375 20.3977 2.78383 19.9655 2.354C19.5333 1.92417 19.0138 1.70925 18.4068 1.70925C17.7861 1.70925 17.2537 1.9245 16.8095 2.355C16.3652 2.78533 16.143 3.30483 16.143 3.9135C16.143 4.536 16.3649 5.06933 16.8088 5.5135C17.2524 5.95783 17.7858 6.18 18.409 6.18Z" fill="white"/>
</svg>
