<svg width="14" height="14" viewBox="0 0 14 14" fill="none" xmlns="http://www.w3.org/2000/svg">
<path d="M5.44317 9.82617C6.65183 9.82617 7.68383 9.40056 8.53917 8.54933C9.3945 7.69822 9.82217 6.66517 9.82217 5.45017C9.82217 4.2445 9.39433 3.21933 8.53867 2.37467C7.683 1.53 6.65183 1.10767 5.44517 1.10767C4.23783 1.10767 3.21311 1.53017 2.371 2.37517C1.52878 3.22017 1.10767 4.2445 1.10767 5.44817C1.10767 6.6645 1.52878 7.69822 2.371 8.54933C3.21311 9.40056 4.23717 9.82617 5.44317 9.82617ZM5.46117 7.26383C5.30861 7.26383 5.18178 7.21172 5.08067 7.1075C4.97956 7.00339 4.929 6.87556 4.929 6.724V3.3855C4.929 3.23394 4.9805 3.10611 5.0835 3.002C5.18661 2.89778 5.31444 2.84567 5.467 2.84567C5.61967 2.84567 5.74744 2.89778 5.85033 3.002C5.95322 3.10611 6.00467 3.23394 6.00467 3.3855V6.724C6.00467 6.87556 5.95228 7.00339 5.8475 7.1075C5.74261 7.21172 5.61383 7.26383 5.46117 7.26383ZM3.0285 7.26383C2.87594 7.26383 2.74844 7.21172 2.646 7.1075C2.54367 7.00339 2.4925 6.87556 2.4925 6.724V4.77683C2.4925 4.62528 2.54489 4.49744 2.64967 4.39333C2.75456 4.28911 2.88333 4.237 3.036 4.237C3.18856 4.237 3.31606 4.28911 3.4185 4.39333C3.52094 4.49744 3.57217 4.62528 3.57217 4.77683V6.724C3.57217 6.87556 3.51972 7.00339 3.41483 7.1075C3.30994 7.21172 3.18117 7.26383 3.0285 7.26383ZM7.89783 7.26383C7.74517 7.26383 7.61761 7.21172 7.51517 7.1075C7.41283 7.00339 7.36167 6.87556 7.36167 6.724V5.46017C7.36167 5.30972 7.41411 5.18283 7.519 5.0795C7.62389 4.97606 7.75261 4.92433 7.90517 4.92433C8.05783 4.92433 8.18533 4.97606 8.28767 5.0795C8.39011 5.18283 8.44133 5.30972 8.44133 5.46017V6.724C8.44133 6.87556 8.38889 7.00339 8.284 7.1075C8.17911 7.21172 8.05039 7.26383 7.89783 7.26383ZM5.44333 10.9337C3.929 10.9337 2.64317 10.4007 1.58583 9.33467C0.528611 8.26867 0 6.97522 0 5.45433C0 3.93344 0.527778 2.64417 1.58333 1.5865C2.63889 0.528832 3.92711 0 5.448 0C6.96889 0 8.26272 0.529999 9.3295 1.59C10.3963 2.64989 10.9297 3.93594 10.9297 5.44817C10.9297 6.10628 10.822 6.72817 10.6067 7.31383C10.3913 7.8995 10.0892 8.42983 9.70033 8.90483L13.1222 12.3265C13.2354 12.4398 13.2899 12.5724 13.2857 12.7243C13.2814 12.8762 13.2256 13.0088 13.118 13.1222C13.013 13.2354 12.8804 13.292 12.7202 13.292C12.5598 13.292 12.4231 13.2354 12.3098 13.1222L8.90467 9.70033C8.42744 10.0892 7.89528 10.392 7.30817 10.6087C6.72106 10.8253 6.09944 10.9337 5.44333 10.9337Z" fill="#0B0B0C"/>
</svg>
