<svg width="12" height="7" viewBox="0 0 12 7" fill="none" xmlns="http://www.w3.org/2000/svg">
<path d="M5.78983 6.6785C5.67783 6.6785 5.57225 6.65783 5.47308 6.6165C5.37375 6.57517 5.27842 6.50883 5.18708 6.4175L0.243084 1.4735C0.0730844 1.3035 -0.00774922 1.10042 0.00058411 0.86425C0.00891744 0.628084 0.0980844 0.425 0.268084 0.255C0.438084 0.0850003 0.641168 0 0.877334 0C1.1135 0 1.31658 0.0850003 1.48658 0.255L5.78983 4.58325L10.1181 0.255C10.2881 0.0850003 10.487 0.00416667 10.7148 0.0125C10.9427 0.0208333 11.1416 0.11 11.3116 0.28C11.4816 0.45 11.5666 0.653084 11.5666 0.88925C11.5666 1.12542 11.4816 1.3285 11.3116 1.4985L6.39258 6.4175C6.30125 6.50883 6.20592 6.57517 6.10658 6.6165C6.00742 6.65783 5.90183 6.6785 5.78983 6.6785Z" fill="white"/>
</svg>
