<svg width="14" height="14" viewBox="0 0 14 14" fill="none" xmlns="http://www.w3.org/2000/svg">
<path d="M0.901167 13.724V13.4357C0.901167 13.1904 0.968444 12.9643 1.103 12.7573C1.23767 12.5503 1.42256 12.3954 1.65767 12.2925C1.939 12.1729 2.22967 12.0806 2.52967 12.0155C2.82967 11.9504 3.14378 11.9178 3.472 11.9178C3.80011 11.9178 4.11328 11.9504 4.4115 12.0155C4.70972 12.0806 4.99928 12.1729 5.28017 12.2925C5.51506 12.3954 5.7005 12.5503 5.8365 12.7573C5.97261 12.9643 6.04067 13.1904 6.04067 13.4357V13.724H0.901167ZM7.795 13.724V13.4357C7.795 13.1904 7.86306 12.9643 7.99917 12.7573C8.13517 12.5503 8.32061 12.3954 8.5555 12.2925C8.83683 12.1729 9.12683 12.0806 9.4255 12.0155C9.72428 11.9504 10.0377 11.9178 10.3658 11.9178C10.6939 11.9178 11.0078 11.9504 11.3073 12.0155C11.6069 12.0806 11.8971 12.1729 12.178 12.2925C12.4131 12.3954 12.598 12.5503 12.7327 12.7573C12.8672 12.9643 12.9345 13.1904 12.9345 13.4357V13.724H7.795ZM3.47217 11.0252C3.10961 11.0252 2.79883 10.8961 2.53983 10.6378C2.28072 10.3796 2.15117 10.0692 2.15117 9.70667C2.15117 9.34411 2.28078 9.03394 2.54 8.77617C2.79911 8.51839 3.11033 8.3895 3.47367 8.3895C3.83711 8.3895 4.14744 8.51861 4.40467 8.77683C4.662 9.03506 4.79067 9.34544 4.79067 9.708C4.79067 10.0706 4.66156 10.3807 4.40333 10.6385C4.14511 10.8963 3.83472 11.0252 3.47217 11.0252ZM10.366 11.0252C10.0034 11.0252 9.69267 10.8961 9.43367 10.6378C9.17456 10.3796 9.045 10.0692 9.045 9.70667C9.045 9.34411 9.17461 9.03394 9.43383 8.77617C9.69294 8.51839 10.0042 8.3895 10.3677 8.3895C10.731 8.3895 11.0413 8.51861 11.2985 8.77683C11.5558 9.03506 11.6845 9.34544 11.6845 9.708C11.6845 10.0706 11.5554 10.3807 11.2972 10.6385C11.0389 10.8963 10.7286 11.0252 10.366 11.0252ZM7.37833 7.79683L7.90667 7.2725C7.99522 7.17828 8.10172 7.13183 8.22617 7.13317C8.35061 7.1345 8.45911 7.18361 8.55167 7.2805C8.64722 7.37472 8.695 7.48189 8.695 7.602C8.695 7.72222 8.64655 7.82944 8.54967 7.92367L7.31967 9.15367C7.20444 9.267 7.07 9.32367 6.91633 9.32367C6.76278 9.32367 6.62933 9.267 6.516 9.15367L5.286 7.92367C5.18911 7.82578 5.14411 7.71767 5.151 7.59933C5.15789 7.481 5.20978 7.37339 5.30667 7.2765C5.40078 7.18228 5.50728 7.1345 5.62617 7.13317C5.74506 7.13183 5.85289 7.17828 5.94967 7.2725L6.45733 7.79683V6.77517C6.45733 6.64206 6.50094 6.532 6.58817 6.445C6.67539 6.358 6.78567 6.3145 6.919 6.3145C7.05244 6.3145 7.16233 6.358 7.24867 6.445C7.33511 6.532 7.37833 6.64206 7.37833 6.77517V7.79683ZM0 5.3345V5.05017C0 4.80261 0.0673334 4.57589 0.202 4.37C0.336556 4.16422 0.521444 4.00856 0.756667 3.903C1.03778 3.78611 1.32828 3.69511 1.62817 3.63C1.92794 3.56489 2.24117 3.53233 2.56783 3.53233C2.87217 3.53233 3.18283 3.56344 3.49983 3.62567C3.81694 3.68789 4.09056 3.76872 4.32067 3.86817C4.15989 4.05928 4.04128 4.24278 3.96483 4.41867C3.88828 4.59467 3.85 4.80517 3.85 5.05017V5.3345H0ZM4.35 5.3345V5.05017C4.35 4.80261 4.41739 4.57589 4.55217 4.37C4.68694 4.16422 4.87178 4.00856 5.10667 3.903C5.38789 3.78611 5.67856 3.69511 5.97867 3.63C6.27867 3.56489 6.59206 3.53233 6.91883 3.53233C7.24572 3.53233 7.55894 3.56489 7.8585 3.63C8.15806 3.69511 8.44822 3.78611 8.729 3.903C8.96389 4.00856 9.14872 4.16422 9.2835 4.37C9.41828 4.57589 9.48567 4.80261 9.48567 5.05017V5.3345H4.35ZM9.98567 5.3345V5.05017C9.98567 4.80517 9.9515 4.59467 9.88317 4.41867C9.81494 4.24278 9.69911 4.05928 9.53567 3.86817C9.76578 3.76872 10.0359 3.68789 10.3462 3.62567C10.6563 3.56344 10.9635 3.53233 11.2678 3.53233C11.5945 3.53233 11.9077 3.56489 12.2075 3.63C12.5074 3.69511 12.7979 3.78611 13.079 3.903C13.3142 4.00856 13.4991 4.16422 13.6337 4.37C13.7683 4.57589 13.8357 4.80261 13.8357 5.05017V5.3345H9.98567ZM2.56983 2.6395C2.20728 2.6395 1.89667 2.50994 1.638 2.25083C1.37933 1.99161 1.25 1.68033 1.25 1.317C1.25 0.953667 1.37939 0.643333 1.63817 0.386C1.89694 0.128666 2.208 0 2.57133 0C2.93467 0 3.24522 0.129111 3.503 0.387333C3.76067 0.645555 3.8895 0.955944 3.8895 1.3185C3.8895 1.68106 3.76022 1.99189 3.50167 2.251C3.243 2.51 2.93239 2.6395 2.56983 2.6395ZM6.91717 2.6395C6.55461 2.6395 6.24444 2.50994 5.98667 2.25083C5.72889 1.99161 5.6 1.68033 5.6 1.317C5.6 0.953667 5.72911 0.643333 5.98733 0.386C6.24556 0.128666 6.55594 0 6.9185 0C7.28106 0 7.59122 0.129111 7.849 0.387333C8.10678 0.645555 8.23567 0.955944 8.23567 1.3185C8.23567 1.68106 8.10656 1.99189 7.84833 2.251C7.59011 2.51 7.27972 2.6395 6.91717 2.6395ZM11.2672 2.6395C10.9046 2.6395 10.5944 2.50994 10.3367 2.25083C10.0789 1.99161 9.95 1.68033 9.95 1.317C9.95 0.953667 10.0791 0.643333 10.3373 0.386C10.5956 0.128666 10.9059 0 11.2685 0C11.6311 0 11.9412 0.129111 12.199 0.387333C12.4568 0.645555 12.5857 0.955944 12.5857 1.3185C12.5857 1.68106 12.4566 1.99189 12.1983 2.251C11.9401 2.51 11.6297 2.6395 11.2672 2.6395Z" fill="#0B0B0C"/>
</svg>
