<svg width="17" height="21" viewBox="0 0 17 21" fill="none" xmlns="http://www.w3.org/2000/svg">
<path d="M4.8995 16.8577H11.3995C11.612 16.8577 11.7902 16.7854 11.934 16.6408C12.0777 16.4963 12.1495 16.3171 12.1495 16.1033C12.1495 15.8896 12.0777 15.7119 11.934 15.5702C11.7902 15.4286 11.612 15.3577 11.3995 15.3577H4.8995C4.687 15.3577 4.50892 15.43 4.36525 15.5745C4.22142 15.7192 4.1495 15.8983 4.1495 16.112C4.1495 16.3258 4.22142 16.5036 4.36525 16.6452C4.50892 16.7869 4.687 16.8577 4.8995 16.8577ZM4.8995 13.8577H11.3995C11.612 13.8577 11.7902 13.7854 11.934 13.6407C12.0777 13.4963 12.1495 13.3171 12.1495 13.1033C12.1495 12.8896 12.0777 12.7119 11.934 12.5702C11.7902 12.4286 11.612 12.3577 11.3995 12.3577H4.8995C4.687 12.3577 4.50892 12.43 4.36525 12.5745C4.22142 12.7192 4.1495 12.8983 4.1495 13.112C4.1495 13.3258 4.22142 13.5036 4.36525 13.6452C4.50892 13.7869 4.687 13.8577 4.8995 13.8577ZM8.1495 4.40925C7.8995 4.09258 7.64117 3.85508 7.3745 3.69675C7.10783 3.53842 6.76617 3.45925 6.3495 3.45925C5.81767 3.45925 5.35975 3.65133 4.97575 4.0355C4.59158 4.4195 4.3995 4.87742 4.3995 5.40925C4.3995 6.26825 4.78633 7.05325 5.56 7.76425C6.33383 8.47508 7.00842 9.08483 7.58375 9.5935C7.74192 9.74683 7.93175 9.8235 8.15325 9.8235C8.37458 9.8235 8.56192 9.74683 8.71525 9.5935C9.29058 9.08483 9.96517 8.46983 10.739 7.7485C11.5127 7.02717 11.8995 6.24825 11.8995 5.41175C11.8995 4.87825 11.7074 4.4195 11.3232 4.0355C10.9392 3.65133 10.4813 3.45925 9.9495 3.45925C9.53283 3.45925 9.19117 3.53842 8.9245 3.69675C8.65783 3.85508 8.3995 4.09258 8.1495 4.40925ZM14.5957 20.305H1.70325C1.24325 20.305 0.844416 20.1361 0.50675 19.7983C0.168916 19.4606 0 19.0617 0 18.6017V1.70925C0 1.24758 0.168916 0.847332 0.50675 0.508499C0.844416 0.169499 1.24325 0 1.70325 0H14.5957C15.0574 0 15.4577 0.169499 15.7965 0.508499C16.1355 0.847332 16.305 1.24758 16.305 1.70925V18.6017C16.305 19.0617 16.1355 19.4606 15.7965 19.7983C15.4577 20.1361 15.0574 20.305 14.5957 20.305ZM1.70325 18.6017H14.5957V1.70925H1.70325V18.6017Z" fill="white"/>
</svg>
