<svg width="39" height="37" viewBox="0 0 39 37" fill="none" xmlns="http://www.w3.org/2000/svg">
<path d="M3.6119 36.5025C2.0839 36.5025 1.0004 35.7967 0.361396 34.385C-0.277271 32.9733 -0.0694377 31.6823 0.984896 30.512L13.3129 16.596V3.407H10.9879C10.5072 3.407 10.1032 3.24233 9.7759 2.913C9.44856 2.584 9.2849 2.17783 9.2849 1.6945C9.2849 1.2115 9.44856 0.808334 9.7759 0.485001C10.1032 0.161667 10.5072 0 10.9879 0H27.0359C27.5166 0 27.9226 0.164667 28.2539 0.494C28.5852 0.823 28.7509 1.22917 28.7509 1.7125C28.7509 2.1955 28.5852 2.59867 28.2539 2.922C27.9226 3.24533 27.5166 3.407 27.0359 3.407H24.7229V16.596L37.0509 30.512C38.0972 31.6823 38.3011 32.9733 37.6624 34.385C37.0234 35.7967 35.9399 36.5025 34.4119 36.5025H3.6119ZM7.3509 31.596H30.6849L22.8639 22.561H15.1719L7.3509 31.596ZM3.2509 33.096H34.7849L21.3044 17.8515V3.407H16.7194V17.8515L3.2509 33.096Z" fill="#0B0B0C"/>
</svg>
