<svg width="13" height="13" viewBox="0 0 13 13" fill="none" xmlns="http://www.w3.org/2000/svg">
<path d="M1.1355 12.2033C0.828833 12.2033 0.562944 12.0907 0.337833 11.8655C0.112611 11.6404 0 11.3745 0 11.0678V1.1395C0 0.831722 0.112611 0.564888 0.337833 0.338999C0.562944 0.112999 0.828833 0 1.1355 0H11.0638C11.3716 0 11.6384 0.112999 11.8643 0.338999C12.0903 0.564888 12.2033 0.831722 12.2033 1.1395V11.0678C12.2033 11.3745 12.0903 11.6404 11.8643 11.8655C11.6384 12.0907 11.3716 12.2033 11.0638 12.2033H1.1355ZM1.1355 11.0678H11.0638V1.1395H1.1355V11.0678ZM2.76667 4.5145H7.10333C7.32578 4.5145 7.51372 4.43667 7.66717 4.281C7.8205 4.12533 7.89717 3.93628 7.89717 3.71383C7.89717 3.49139 7.8205 3.30394 7.66717 3.1515C7.51372 2.99906 7.32578 2.92283 7.10333 2.92283H2.76267C2.54022 2.92283 2.35228 2.99972 2.19883 3.1535C2.0455 3.30728 1.96883 3.49539 1.96883 3.71783C1.96883 3.94028 2.04639 4.12867 2.2015 4.283C2.35672 4.43733 2.54511 4.5145 2.76667 4.5145Z" fill="#0B0B0C"/>
</svg>
