<svg width="31" height="42" viewBox="0 0 31 42" fill="none" xmlns="http://www.w3.org/2000/svg">
<path d="M15.2985 41.95C14.1415 41.95 13.1595 41.5383 12.3525 40.715C11.5452 39.892 11.1415 38.882 11.1415 37.685H19.4565C19.4565 38.882 19.0528 39.892 18.2455 40.715C17.4378 41.5383 16.4555 41.95 15.2985 41.95ZM8.6865 34.513C8.23817 34.513 7.86417 34.3617 7.5645 34.059C7.26517 33.7563 7.1155 33.3813 7.1155 32.934C7.1155 32.4897 7.266 32.1178 7.567 31.8185C7.86833 31.5192 8.24167 31.3695 8.687 31.3695H21.923C22.365 31.3695 22.7355 31.5222 23.0345 31.8275C23.3332 32.1328 23.4825 32.5075 23.4825 32.9515C23.4825 33.3955 23.3332 33.7668 23.0345 34.0655C22.7355 34.3638 22.365 34.513 21.923 34.513H8.6865ZM7.3655 28.248C5.1175 26.7827 3.328 24.9498 1.997 22.7495C0.665667 20.5495 0 18.066 0 15.299C0 11.1547 1.512 7.56867 4.536 4.541C7.56033 1.51367 11.1468 0 15.2955 0C19.4442 0 23.0337 1.51367 26.064 4.541C29.0947 7.56867 30.61 11.1547 30.61 15.299C30.61 18.0627 29.9527 20.5455 28.638 22.7475C27.3237 24.9492 25.5218 26.7827 23.2325 28.248H7.3655ZM8.6005 24.8415H22.0345C23.6292 23.7845 24.8873 22.4153 25.809 20.734C26.7307 19.0527 27.1915 17.2418 27.1915 15.3015C27.1915 12.0315 26.0265 9.2335 23.6965 6.9075C21.3662 4.5815 18.567 3.4185 15.299 3.4185C12.031 3.4185 9.23183 4.5815 6.9015 6.9075C4.5715 9.2335 3.4065 12.0315 3.4065 15.3015C3.4065 17.2418 3.86917 19.0522 4.7945 20.7325C5.71983 22.4132 6.9885 23.7828 8.6005 24.8415Z" fill="#0B0B0C"/>
</svg>
