<svg width="27" height="41" viewBox="0 0 27 41" fill="none" xmlns="http://www.w3.org/2000/svg">
<path d="M13.1795 0C14.9035 0 16.3485 0.583501 17.5145 1.7505C18.6802 2.9175 19.263 4.36183 19.263 6.0835C19.263 7.8155 18.6805 9.2625 17.5155 10.4245C16.3502 11.5865 14.9048 12.1675 13.1795 12.1675C11.4475 12.1675 10.0005 11.5865 8.8385 10.4245C7.67683 9.2625 7.096 7.8175 7.096 6.0895C7.096 4.36183 7.67683 2.915 8.8385 1.749C10.0005 0.582999 11.4475 0 13.1795 0ZM13.18 14.1915C14.729 14.1915 16.2822 14.3935 17.8395 14.7975C19.3965 15.2015 20.7997 15.7407 22.049 16.415C23.3477 17.1057 24.3907 17.9012 25.178 18.8015C25.9653 19.7018 26.359 20.6502 26.359 21.6465V33.36C26.359 34.5817 25.9742 35.6405 25.2045 36.5365C24.4348 37.4325 23.4522 37.8805 22.2565 37.8805C21.9012 37.8805 21.5905 37.753 21.3245 37.498C21.0582 37.243 20.925 36.7847 20.925 36.123V34.4165C20.925 33.1655 20.0853 32.1512 18.406 31.3735C16.7267 30.5955 14.9845 30.2065 13.1795 30.2065C11.7382 30.2065 10.3422 30.4358 8.9915 30.8945C7.64083 31.3532 6.62417 31.9578 5.9415 32.7085C5.7015 32.9912 5.6355 33.3005 5.7435 33.6365C5.8515 33.9722 6.09617 34.2107 6.4775 34.352C7.52017 34.7107 8.61983 34.9547 9.7765 35.084C10.9328 35.2137 12.1218 35.2952 13.3435 35.3285C14.0835 35.3285 14.7075 35.5832 15.2155 36.0925C15.7235 36.6022 15.9775 37.226 15.9775 37.964C15.9775 38.702 15.7227 39.3258 15.213 39.8355C14.7033 40.3452 14.0795 40.6 13.3415 40.6C12.1192 40.6 10.7377 40.471 9.197 40.213C7.65633 39.955 6.21067 39.5427 4.86 38.976C3.42967 38.3777 2.262 37.62 1.357 36.703C0.452333 35.786 0 34.671 0 33.358V21.6435C0 20.6472 0.383333 19.6993 1.15 18.8C1.91667 17.9007 2.95333 17.1057 4.26 16.415C5.53567 15.7443 6.95217 15.206 8.5095 14.8C10.0665 14.3943 11.6233 14.1915 13.18 14.1915ZM13.1795 26.3585C14.3668 26.3585 15.3403 25.9788 16.1 25.2195C16.8597 24.4598 17.2395 23.4863 17.2395 22.299C17.2395 21.1163 16.8577 20.146 16.094 19.388C15.3303 18.63 14.3588 18.251 13.1795 18.251C11.9888 18.251 11.0165 18.6297 10.2625 19.387C9.5085 20.1443 9.1315 21.115 9.1315 22.299C9.1315 23.4943 9.50817 24.4698 10.2615 25.2255C11.0148 25.9808 11.9875 26.3585 13.1795 26.3585Z" fill="#0B0B0C"/>
</svg>
