<svg width="37" height="41" viewBox="0 0 37 41" fill="none" xmlns="http://www.w3.org/2000/svg">
<path d="M3.4065 40.61C2.46983 40.61 1.66783 40.2765 1.0005 39.6095C0.3335 38.9422 0 38.1402 0 37.2035V7.4185C0 6.4785 0.3335 5.67383 1.0005 5.0045C1.66783 4.33483 2.46983 4 3.4065 4H13.3575C13.5722 2.83333 14.1415 1.875 15.0655 1.125C15.9892 0.375 17.067 0 18.299 0C19.531 0 20.6088 0.375 21.5325 1.125C22.4565 1.875 23.0258 2.83333 23.2405 4H33.1915C34.1315 4 34.9362 4.33483 35.6055 5.0045C36.2752 5.67383 36.61 6.4785 36.61 7.4185V37.2035C36.61 38.1402 36.2752 38.9422 35.6055 39.6095C34.9362 40.2765 34.1315 40.61 33.1915 40.61H3.4065ZM3.4065 37.2035H33.1915V7.4185H3.4065V37.2035ZM9.91 32.2035H20.4215C20.8488 32.2035 21.2063 32.0588 21.494 31.7695C21.7813 31.4805 21.925 31.1222 21.925 30.6945C21.925 30.2672 21.7813 29.9118 21.494 29.6285C21.2063 29.3452 20.8488 29.2035 20.4215 29.2035H9.91C9.48267 29.2035 9.12533 29.348 8.838 29.637C8.55033 29.9263 8.4065 30.2847 8.4065 30.712C8.4065 31.1397 8.55033 31.4952 8.838 31.7785C9.12533 32.0618 9.48267 32.2035 9.91 32.2035ZM9.91 23.811H26.688C27.1153 23.811 27.4727 23.6663 27.76 23.377C28.0477 23.088 28.1915 22.7297 28.1915 22.302C28.1915 21.8747 28.0477 21.5193 27.76 21.236C27.4727 20.9527 27.1153 20.811 26.688 20.811H9.91C9.48267 20.811 9.12533 20.9557 8.838 21.245C8.55033 21.534 8.4065 21.8923 8.4065 22.32C8.4065 22.7473 8.55033 23.1027 8.838 23.386C9.12533 23.6693 9.48267 23.811 9.91 23.811ZM9.91 15.4185H26.688C27.1153 15.4185 27.4727 15.274 27.76 14.985C28.0477 14.6957 28.1915 14.3373 28.1915 13.91C28.1915 13.4823 28.0477 13.1268 27.76 12.8435C27.4727 12.5602 27.1153 12.4185 26.688 12.4185H9.91C9.48267 12.4185 9.12533 12.5632 8.838 12.8525C8.55033 13.1415 8.4065 13.4998 8.4065 13.9275C8.4065 14.3548 8.55033 14.7102 8.838 14.9935C9.12533 15.2768 9.48267 15.4185 9.91 15.4185ZM18.299 6.5325C18.7933 6.5325 19.2205 6.3525 19.5805 5.9925C19.9405 5.6325 20.1205 5.20533 20.1205 4.711C20.1205 4.21667 19.9405 3.7895 19.5805 3.4295C19.2205 3.0695 18.7933 2.8895 18.299 2.8895C17.8047 2.8895 17.3775 3.0695 17.0175 3.4295C16.6575 3.7895 16.4775 4.21667 16.4775 4.711C16.4775 5.20533 16.6575 5.6325 17.0175 5.9925C17.3775 6.3525 17.8047 6.5325 18.299 6.5325Z" fill="#0B0B0C"/>
</svg>
